<svg width="19" height="18" viewBox="0 0 19 18" fill="none" xmlns="http://www.w3.org/2000/svg">
<path d="M5.63333 13.8667C4.60056 13.8667 3.76494 14.6467 3.76494 15.6C3.76494 16.5533 4.60056 17.3333 5.63333 17.3333C6.66611 17.3333 7.51111 16.5533 7.51111 15.6C7.51111 14.6467 6.66611 13.8667 5.63333 13.8667ZM0 0V1.73333H1.87778L5.25778 8.31133L3.99028 10.4347C3.84006 10.6773 3.75556 10.9633 3.75556 11.2667C3.75556 12.22 4.60056 13 5.63333 13H16.9V11.2667H6.02767C5.89622 11.2667 5.79294 11.1713 5.79294 11.05L5.82111 10.946L6.66611 9.53333H13.6608C14.365 9.53333 14.9847 9.178 15.3039 8.64067L18.6651 3.016C18.7402 2.89467 18.7778 2.74733 18.7778 2.6C18.7778 2.12333 18.3553 1.73333 17.8389 1.73333H3.95272L3.07017 0H0ZM15.0222 13.8667C13.9894 13.8667 13.1538 14.6467 13.1538 15.6C13.1538 16.5533 13.9894 17.3333 15.0222 17.3333C16.055 17.3333 16.9 16.5533 16.9 15.6C16.9 14.6467 16.055 13.8667 15.0222 13.8667Z" fill="#0A3641"/>
</svg>
